<?xml version="1.0" encoding="UTF-8" standalone="no"?>
<!-- Created with Inkscape (http://www.inkscape.org/) -->

<svg
   width="23.6mm"
   height="10.2mm"
   viewBox="0 0 23.599999 10.2"
   version="1.1"
   id="svg5"
   inkscape:version="1.1.2 (b8e25be833, 2022-02-05)"
   sodipodi:docname="logo_devis_lib.svg"
   xmlns:inkscape="http://www.inkscape.org/namespaces/inkscape"
   xmlns:sodipodi="http://sodipodi.sourceforge.net/DTD/sodipodi-0.dtd"
   xmlns="http://www.w3.org/2000/svg"
   xmlns:svg="http://www.w3.org/2000/svg">
  <sodipodi:namedview
     id="namedview7"
     pagecolor="#ffffff"
     bordercolor="#666666"
     borderopacity="1.0"
     inkscape:pageshadow="2"
     inkscape:pageopacity="0.0"
     inkscape:pagecheckerboard="0"
     inkscape:document-units="mm"
     showgrid="false"
     inkscape:zoom="1.4142136"
     inkscape:cx="196.22213"
     inkscape:cy="77.07464"
     inkscape:window-width="1366"
     inkscape:window-height="697"
     inkscape:window-x="-8"
     inkscape:window-y="-8"
     inkscape:window-maximized="1"
     inkscape:current-layer="layer2"
     width="20mm"
     height="10.2mm" />
  <defs
     id="defs2" />
  <g
     inkscape:groupmode="layer"
     id="layer1"
     inkscape:label="fond"
     sodipodi:insensitive="true"
     style="display:none">
    <rect
       style="fill:none;stroke:#000000;stroke-width:1.11127;stroke-miterlimit:4;stroke-dasharray:none;stroke-opacity:1"
       id="rect3751"
       width="163.0018"
       height="105.65451"
       x="25.572662"
       y="113.09901" />
  </g>
  <g
     inkscape:groupmode="layer"
     id="layer2"
     inkscape:label="Calque 2"
     style="display:inline">
    <path
       style="opacity:1;fill:none;stroke:#000000;stroke-width:0.213734;stroke-linecap:round;stroke-linejoin:miter;stroke-miterlimit:4;stroke-dasharray:none;stroke-opacity:1"
       d="m 4.7477453,2.666667 c 0,0 4.4292077,-3.27985001 10.0524177,-0.15584"
       id="path315"
       sodipodi:nodetypes="cc"
       inkscape:export-filename="C:\Users\murie\Desktop\path315.png"
       inkscape:export-xdpi="96"
       inkscape:export-ydpi="96" />
    <path
       style="fill:none;stroke:#000000;stroke-width:0.213734;stroke-linecap:round;stroke-linejoin:miter;stroke-miterlimit:4;stroke-dasharray:none;stroke-opacity:1"
       d="m 0.42908027,9.9415973 c 0,0 0.271878,-9.78759031 9.31180773,-9.58368031 9.039929,0.2039 8.793541,6.91588031 8.793541,6.91588031 0,0 2.778249,0.27188 3.882753,1.1215 0,0 2.209005,1.6652497 0,1.6482597 L 0.42830309,10.06768 Z"
       id="path1985"
       inkscape:export-filename="C:\Users\murie\Desktop\path315.png"
       inkscape:export-xdpi="96"
       inkscape:export-ydpi="96"
       sodipodi:nodetypes="ccccccc" />
    <path
       style="fill:none;stroke:#000000;stroke-width:0.213734;stroke-linecap:round;stroke-linejoin:miter;stroke-miterlimit:4;stroke-dasharray:none;stroke-opacity:1"
       d="m 19.103673,7.8345473 c 0,0 1.835174,0.15293 2.939676,0.83263 0,0 1.376381,0.90059 -0.01699,0.90059 l -20.8496127,-0.034"
       id="path2298"
       inkscape:export-filename="C:\Users\murie\Desktop\path315.png"
       inkscape:export-xdpi="96"
       inkscape:export-ydpi="96" />
    <g
       aria-label="DevisLib"
       transform="scale(0.99784535,1.0021593)"
       id="text3652"
       style="font-size:4.72675px;line-height:1.25;font-family:roboto;-inkscape-font-specification:roboto;stroke-width:0.118169">
      <path
         d="M 2.6943596,8.3717222 V 5.0112985 h 0.8008702 q 0.5885358,0 0.9139614,0.3692773 0.3254257,0.3669694 0.3254257,1.0339765 v 0.563148 q 0,0.6670072 -0.3300416,1.0316685 -0.3300417,0.3623534 -0.9578131,0.3623534 z m 0.422361,-2.9957624 v 2.633409 h 0.3392735 q 0.4454408,0 0.6508513,-0.2538781 Q 4.3122559,7.4993045 4.3168719,6.9984721 V 6.4030124 q 0,-0.5308361 -0.2054105,-0.7777904 Q 3.9083588,5.3759598 3.4952298,5.3759598 Z"
         style="font-family:'Roboto Condensed';-inkscape-font-specification:'Roboto Condensed, '"
         id="path849" />
      <path
         d="m 6.2278822,8.4178819 q -0.4662126,0 -0.7154748,-0.276958 Q 5.2631452,7.8616579 5.2585292,7.3238978 V 7.021552 q 0,-0.558532 0.2423382,-0.8747257 0.2446463,-0.3185017 0.6808551,-0.3185017 0.4385169,0 0.6554673,0.279266 0.2169504,0.2792659 0.2215664,0.8701097 v 0.267726 H 5.6647343 v 0.0577 q 0,0.4015891 0.1500189,0.5839198 0.1523269,0.1823307 0.4362088,0.1823307 0.1800227,0 0.3161937,-0.066931 0.138479,-0.06924 0.2584942,-0.2169504 L 7.0379843,8.0439886 Q 6.7725663,8.4178819 6.2278822,8.4178819 Z M 6.1817225,6.179138 q -0.2538781,0 -0.3762013,0.1754068 -0.1223231,0.1730987 -0.138479,0.5400681 H 6.6502431 V 6.8392213 Q 6.6340873,6.4837918 6.5209961,6.3314649 6.4102129,6.179138 6.1817225,6.179138 Z"
         style="font-family:'Roboto Condensed';-inkscape-font-specification:'Roboto Condensed, '"
         id="path851" />
      <path
         d="M 8.2265958,7.7508747 8.6997323,5.8744842 h 0.415437 L 8.3743067,8.3717222 H 8.0696529 L 7.3195583,5.8744842 h 0.415437 z"
         style="font-family:'Roboto Condensed';-inkscape-font-specification:'Roboto Condensed, '"
         id="path853" />
      <path
         d="M 9.9806631,8.3717222 H 9.57215 V 5.8744842 H 9.9806631 Z M 10.012975,5.212093 q 0,0.1038593 -0.0577,0.1730988 -0.0577,0.06924 -0.1754067,0.06924 -0.1153992,0 -0.1730987,-0.06924 -0.0577,-0.06924 -0.0577,-0.1730988 0,-0.1038592 0.0577,-0.1754067 0.0577,-0.071548 0.1730987,-0.071548 0.1153992,0 0.1730988,0.073855 0.060008,0.071548 0.060008,0.1730987 z"
         style="font-family:'Roboto Condensed';-inkscape-font-specification:'Roboto Condensed, '"
         id="path855" />
      <path
         d="m 11.836282,7.7324108 q 0,-0.131555 -0.09924,-0.2261823 -0.09924,-0.094627 -0.383125,-0.2215664 -0.330041,-0.1361711 -0.466212,-0.2331064 -0.133864,-0.096935 -0.200795,-0.2192584 -0.06693,-0.1246311 -0.06693,-0.2954218 0,-0.3046538 0.221567,-0.5054484 0.223874,-0.2031025 0.570072,-0.2031025 0.364661,0 0.586227,0.2123344 0.221567,0.2123345 0.221567,0.5446841 h -0.406205 q 0,-0.1684828 -0.113091,-0.2861899 -0.113092,-0.1200152 -0.288498,-0.1200152 -0.180023,0 -0.283882,0.094627 -0.101551,0.092319 -0.101551,0.2492622 0,0.1246311 0.07386,0.2007945 0.07616,0.076164 0.362353,0.2007946 0.454673,0.1777147 0.61854,0.3485054 0.163867,0.1684828 0.163867,0.429285 0,0.3254256 -0.223875,0.5216042 -0.223874,0.1938706 -0.600075,0.1938706 -0.39005,0 -0.632388,-0.2238744 -0.242338,-0.2238744 -0.242338,-0.5677639 h 0.410821 q 0.0069,0.2077185 0.126939,0.3254257 0.120015,0.1177071 0.336966,0.1177071 0.203102,0 0.309269,-0.090011 0.106168,-0.092319 0.106168,-0.2469543 z"
         style="font-family:'Roboto Condensed';-inkscape-font-specification:'Roboto Condensed, '"
         id="path857" />
      <path
         d="m 13.133369,8.127076 h 1.38479 V 8.3717222 H 12.867951 V 5.0112985 h 0.265418 z"
         style="font-weight:300;font-family:'Roboto Condensed';-inkscape-font-specification:'Roboto Condensed,  Light'"
         id="path859" />
      <path
         d="m 15.291333,8.3717222 h -0.258494 v -2.497238 h 0.258494 z M 14.995911,5.1543934 q 0,-0.078471 0.04385,-0.133863 0.04385,-0.055392 0.124631,-0.055392 0.08078,0 0.124631,0.055392 0.04616,0.055392 0.04616,0.133863 0,0.078472 -0.04616,0.1338631 -0.04385,0.053084 -0.124631,0.053084 -0.08078,0 -0.124631,-0.053084 -0.04385,-0.055392 -0.04385,-0.1338631 z"
         style="font-weight:300;font-family:'Roboto Condensed';-inkscape-font-specification:'Roboto Condensed,  Light'"
         id="path861" />
      <path
         d="m 17.705483,7.2408104 q 0,0.5769958 -0.203102,0.8770337 -0.200795,0.3000378 -0.600076,0.3000378 -0.440825,0 -0.653159,-0.3808173 l -0.01154,0.3346576 H 15.999884 V 4.8266598 h 0.253878 v 1.3963299 q 0.210026,-0.3946651 0.643927,-0.3946651 0.403897,0 0.602384,0.2861899 0.198486,0.283882 0.20541,0.8493379 z M 17.449297,7.0077041 q 0,-0.4754446 -0.140787,-0.703935 -0.140787,-0.2284903 -0.461597,-0.2284903 -0.426976,0 -0.593151,0.4500567 v 1.2370791 q 0.07847,0.1961786 0.230798,0.3046538 0.152327,0.1061673 0.366969,0.1061673 0.306962,0 0.450057,-0.2215664 0.145403,-0.2238744 0.147711,-0.694703 z"
         style="font-weight:300;font-family:'Roboto Condensed';-inkscape-font-specification:'Roboto Condensed,  Light'"
         id="path863" />
    </g>
    <path
       style="fill:none;stroke:#000000;stroke-width:0.213734;stroke-linecap:round;stroke-linejoin:miter;stroke-miterlimit:4;stroke-dasharray:none;stroke-opacity:1"
       d="m 9.180141,4.576267 c 0,0 0.50977,-0.4418 1.146983,0.004"
       id="path2655"
       inkscape:export-filename="C:\Users\murie\Desktop\path315.png"
       inkscape:export-xdpi="96"
       inkscape:export-ydpi="96" />
  </g>
</svg>
